<svg width="20" height="20" viewBox="0 0 20 20" fill="none" xmlns="http://www.w3.org/2000/svg">
<path opacity="0.8" d="M5.55556 16.6667C4.66667 16.6667 3.77778 15.8333 3.33333 15.4762C1.11111 13.8095 0.444444 13.2143 0 12.8571V17.8571C0 18.5145 0.497569 19.0476 1.11111 19.0476H10C10.6135 19.0476 11.1111 18.5145 11.1111 17.8571V12.8571C10.6667 13.2143 10 13.8095 7.77778 15.4762C7.33333 15.8333 6.44444 16.6667 5.55556 16.6667ZM10 9.52381H1.11111C0.497569 9.52381 0 10.0569 0 10.7143V11.3095C0.888889 12.0238 0.777777 12.0238 4 14.5238C4.33333 14.7619 5 15.4762 5.55556 15.4762C6.11111 15.4762 6.77778 14.7619 7.11111 14.6429C10.3333 12.1429 10.2222 12.1429 11.1111 11.4286V10.7143C11.1111 10.0569 10.6135 9.52381 10 9.52381ZM18.8889 5.95238H7.77778C7.16424 5.95238 6.66667 6.48549 6.66667 7.14286V8.33333H10C11.1531 8.33333 12.1038 9.27902 12.2122 10.4844L12.2222 10.4762V15.4762H18.8889C19.5024 15.4762 20 14.9431 20 14.2857V7.14286C20 6.48549 19.5024 5.95238 18.8889 5.95238ZM17.7778 10.7143H15.5556V8.33333H17.7778V10.7143ZM5.55556 7.14286C5.55556 5.82998 6.55243 4.7619 7.77778 4.7619H15.5556V1.19048C15.5556 0.53311 15.058 0 14.4444 0H3.33333C2.71979 0 2.22222 0.53311 2.22222 1.19048V8.33333H5.55556V7.14286Z" fill="#DED5C4"/>
</svg>
