<svg width="35" height="35" viewBox="0 0 35 35" fill="none" xmlns="http://www.w3.org/2000/svg">
<path d="M20.6392 11.3477H23.3653C23.5103 11.3477 23.6494 11.29 23.752 11.1875C23.8545 11.0849 23.9121 10.9458 23.9121 10.8008C23.9121 10.6557 23.8545 10.5166 23.752 10.4141C23.6494 10.3115 23.5103 10.2539 23.3653 10.2539H20.6392C20.4942 10.2539 20.3551 10.3115 20.2525 10.4141C20.15 10.5166 20.0924 10.6557 20.0924 10.8008C20.0924 10.9458 20.15 11.0849 20.2525 11.1875C20.3551 11.29 20.4942 11.3477 20.6392 11.3477ZM20.6392 14.6973H27.0945C27.2396 14.6973 27.3787 14.6396 27.4812 14.5371C27.5838 14.4345 27.6414 14.2954 27.6414 14.1504C27.6414 14.0054 27.5838 13.8663 27.4812 13.7637C27.3787 13.6611 27.2396 13.6035 27.0945 13.6035H20.6392C20.4942 13.6035 20.3551 13.6611 20.2525 13.7637C20.15 13.8663 20.0924 14.0054 20.0924 14.1504C20.0924 14.2954 20.15 14.4345 20.2525 14.5371C20.3551 14.6396 20.4942 14.6973 20.6392 14.6973ZM20.6392 18.0469H27.0945C27.2396 18.0469 27.3787 17.9893 27.4812 17.8867C27.5838 17.7841 27.6414 17.645 27.6414 17.5C27.6414 17.355 27.5838 17.2159 27.4812 17.1133C27.3787 17.0107 27.2396 16.9531 27.0945 16.9531H20.6392C20.4942 16.9531 20.3551 17.0107 20.2525 17.1133C20.15 17.2159 20.0924 17.355 20.0924 17.5C20.0924 17.645 20.15 17.7841 20.2525 17.8867C20.3551 17.9893 20.4942 18.0469 20.6392 18.0469ZM20.6392 21.3965H27.0945C27.2396 21.3965 27.3787 21.3389 27.4812 21.2363C27.5838 21.1337 27.6414 20.9946 27.6414 20.8496C27.6414 20.7046 27.5838 20.5655 27.4812 20.4629C27.3787 20.3604 27.2396 20.3027 27.0945 20.3027H20.6392C20.4942 20.3027 20.3551 20.3604 20.2525 20.4629C20.15 20.5655 20.0924 20.7046 20.0924 20.8496C20.0924 20.9946 20.15 21.1337 20.2525 21.2363C20.3551 21.3389 20.4942 21.3965 20.6392 21.3965ZM7.90552 11.3477H10.6313C10.7764 11.3477 10.9155 11.29 11.018 11.1875C11.1206 11.0849 11.1782 10.9458 11.1782 10.8008C11.1782 10.6557 11.1206 10.5166 11.018 10.4141C10.9155 10.3115 10.7764 10.2539 10.6313 10.2539H7.90552C7.76048 10.2539 7.62138 10.3115 7.51882 10.4141C7.41626 10.5166 7.35864 10.6557 7.35864 10.8008C7.35864 10.9458 7.41626 11.0849 7.51882 11.1875C7.62138 11.29 7.76048 11.3477 7.90552 11.3477ZM7.90552 14.6973H14.3608C14.5059 14.6973 14.645 14.6396 14.7475 14.5371C14.8501 14.4345 14.9077 14.2954 14.9077 14.1504C14.9077 14.0054 14.8501 13.8663 14.7475 13.7637C14.645 13.6611 14.5059 13.6035 14.3608 13.6035H7.90552C7.76048 13.6035 7.62138 13.6611 7.51882 13.7637C7.41626 13.8663 7.35864 14.0054 7.35864 14.1504C7.35864 14.2954 7.41626 14.4345 7.51882 14.5371C7.62138 14.6396 7.76048 14.6973 7.90552 14.6973ZM7.90552 18.0469H14.3608C14.5059 18.0469 14.645 17.9893 14.7475 17.8867C14.8501 17.7841 14.9077 17.645 14.9077 17.5C14.9077 17.355 14.8501 17.2159 14.7475 17.1133C14.645 17.0107 14.5059 16.9531 14.3608 16.9531H7.90552C7.76048 16.9531 7.62138 17.0107 7.51882 17.1133C7.41626 17.2159 7.35864 17.355 7.35864 17.5C7.35864 17.645 7.41626 17.7841 7.51882 17.8867C7.62138 17.9893 7.76048 18.0469 7.90552 18.0469ZM7.90552 21.3965H14.3608C14.5059 21.3965 14.645 21.3389 14.7475 21.2363C14.8501 21.1337 14.9077 20.9946 14.9077 20.8496C14.9077 20.7046 14.8501 20.5655 14.7475 20.4629C14.645 20.3604 14.5059 20.3027 14.3608 20.3027H7.90552C7.76048 20.3027 7.62138 20.3604 7.51882 20.4629C7.41626 20.5655 7.35864 20.7046 7.35864 20.8496C7.35864 20.9946 7.41626 21.1337 7.51882 21.2363C7.62138 21.3389 7.76048 21.3965 7.90552 21.3965Z" fill="#DED5C4"/>
<path d="M33.054 8.88672H30.8301V8.36616C30.8311 7.65526 30.5505 6.97288 30.0497 6.46832C29.5489 5.96376 28.8687 5.67809 28.1578 5.67383H21.2249C20.9123 5.67609 20.6025 5.73308 20.3096 5.8422L18.0414 6.67064C17.6918 6.79813 17.3086 6.79876 16.9586 6.67242L14.6904 5.84131C14.3974 5.73246 14.0876 5.67577 13.7751 5.67383H6.84223C6.13133 5.67809 5.45107 5.96376 4.95026 6.46832C4.44945 6.97288 4.16888 7.65526 4.16992 8.36616V8.88672H1.94599C1.79601 8.889 1.65256 8.94848 1.54497 9.053C1.43739 9.15752 1.37379 9.29919 1.36719 9.44904V28.765C1.37385 28.9147 1.43751 29.0562 1.54511 29.1606C1.65271 29.2649 1.79613 29.3241 1.94599 29.3262H33.054C33.2039 29.3241 33.3473 29.2649 33.4549 29.1606C33.5625 29.0562 33.6261 28.9147 33.6328 28.765V9.44904C33.6262 9.29919 33.5626 9.15752 33.455 9.053C33.3474 8.94848 33.204 8.889 33.054 8.88672ZM20.6834 6.87012C20.8566 6.80463 21.0398 6.76993 21.2249 6.76758H28.1578C28.5787 6.77151 28.9809 6.94183 29.2767 7.24135C29.5725 7.54086 29.7377 7.94523 29.7363 8.36616V23.1958C29.7363 24.0693 29.0314 24.7461 28.1578 24.7461H21.2249C20.9118 24.7518 20.6021 24.8121 20.3097 24.9244L18.0469 25.7646V7.80664C18.1721 7.77952 18.2952 7.74352 18.4153 7.69891L20.6834 6.87012ZM5.26367 8.36616C5.2623 7.94523 5.42753 7.54086 5.7233 7.24135C6.01906 6.94183 6.42131 6.77151 6.84223 6.76758H13.7751C13.9602 6.76992 14.1434 6.80463 14.3165 6.87012L16.5847 7.69856C16.7048 7.74329 16.8279 7.77941 16.9531 7.80664V25.7646L14.6904 24.9247C14.3981 24.8123 14.0883 24.7518 13.7751 24.7461H6.84223C5.96859 24.7461 5.26367 24.0693 5.26367 23.1958V8.36616ZM32.5391 28.2324H2.46094V9.98047H4.16992V23.1958C4.17034 23.5453 4.23995 23.8913 4.37475 24.2137C4.50954 24.5362 4.70685 24.8287 4.95528 25.0745C5.20372 25.3203 5.49837 25.5145 5.82223 25.6459C6.14609 25.7772 6.49276 25.8431 6.84223 25.8398H13.7751C13.9607 25.8456 14.1439 25.8836 14.3165 25.9522L16.5848 26.7857C17.1751 27.0037 17.8235 27.0059 18.4153 26.792L20.6834 25.9512C20.8561 25.8829 21.0393 25.8452 21.2249 25.8398H28.1578C28.5072 25.8431 28.8539 25.7772 29.1778 25.6459C29.5016 25.5145 29.7963 25.3203 30.0447 25.0745C30.2932 24.8287 30.4905 24.5362 30.6253 24.2137C30.76 23.8913 30.8297 23.5453 30.8301 23.1958V9.98047H32.5391V28.2324Z" fill="#DED5C4"/>
</svg>
