<svg width="25" height="25" viewBox="0 0 25 25" fill="none" xmlns="http://www.w3.org/2000/svg">
<path d="M24.2188 12.2841C24.2311 18.7654 18.79 24.0652 12.1182 24.0697C9.23657 24.0717 6.5897 23.0959 4.50967 21.4651C3.9688 21.0411 3.92837 20.2536 4.41987 19.7762L4.97002 19.2417C5.39038 18.8334 6.06147 18.7887 6.5272 19.1476C8.05967 20.3289 9.99907 21.034 12.1094 21.034C17.0754 21.034 21.0938 17.1298 21.0938 12.3064C21.0938 7.48218 17.0747 3.57868 12.1094 3.57868C9.72588 3.57868 7.56108 4.47844 5.95371 5.94711L8.43193 8.35453C8.92412 8.83265 8.57554 9.65011 7.87954 9.65011H0.78125C0.349756 9.65011 0 9.31035 0 8.89118V1.9957C0 1.31959 0.841504 0.980965 1.33369 1.45904L3.74443 3.80091C5.91841 1.78268 8.86484 0.542969 12.1094 0.542969C18.7896 0.542969 24.2064 5.7976 24.2188 12.2841ZM15.3852 16.0211L15.8648 15.422C16.2622 14.9257 16.1701 14.2105 15.6592 13.8245L13.6719 12.3229V7.37333C13.6719 6.7446 13.1472 6.23493 12.5 6.23493H11.7188C11.0715 6.23493 10.5469 6.7446 10.5469 7.37333V13.8077L13.7407 16.2208C14.2516 16.6067 14.9878 16.5174 15.3852 16.0211Z" fill="#DED5C4"/>
</svg>
