<svg width="25" height="25" viewBox="0 0 25 25" fill="none" xmlns="http://www.w3.org/2000/svg">
<path d="M1.28206 20.5343L9.25081 23.6038C9.74925 23.7976 10.3172 23.4124 10.3125 22.8741V20.5858H15.5594C15.7666 20.5858 15.9653 20.5035 16.1118 20.357C16.2583 20.2105 16.3407 20.0118 16.3407 19.8046V13.9476C16.3407 13.7404 16.2583 13.5417 16.1118 13.3951C15.9653 13.2486 15.7666 13.1663 15.5594 13.1663C15.3522 13.1663 15.1535 13.2486 15.007 13.3951C14.8605 13.5417 14.7782 13.7404 14.7782 13.9476V19.0233H10.3125V5.19444C10.3126 5.03644 10.2648 4.88212 10.1754 4.75185C10.086 4.62158 9.95922 4.52148 9.81175 4.46476L5.76487 2.90616H14.7782V7.98194C14.7782 8.18914 14.8605 8.38786 15.007 8.53437C15.1535 8.68088 15.3522 8.76319 15.5594 8.76319C15.7666 8.76319 15.9653 8.68088 16.1118 8.53437C16.2583 8.38786 16.3407 8.18914 16.3407 7.98194V2.12569C16.3407 1.91849 16.2583 1.71978 16.1118 1.57327C15.9653 1.42675 15.7666 1.34444 15.5594 1.34444H1.56253C1.16331 1.31554 0.777373 1.73116 0.781279 2.12569V19.8054C0.781279 20.1288 0.979717 20.4179 1.28206 20.5343ZM8.75003 21.7358L2.34378 19.2687V3.26398L8.75003 5.73116V21.7358Z" fill="white"/>
<path d="M19.646 14.757C19.7185 14.8296 19.8046 14.8872 19.8994 14.9265C19.9941 14.9658 20.0957 14.986 20.1983 14.986C20.3009 14.986 20.4025 14.9658 20.4973 14.9265C20.5921 14.8872 20.6782 14.8296 20.7507 14.757L23.9897 11.5179C24.0624 11.4453 24.12 11.3592 24.1593 11.2643C24.1986 11.1695 24.2189 11.0678 24.2189 10.9652C24.2189 10.8625 24.1986 10.7608 24.1593 10.666C24.12 10.5712 24.0624 10.485 23.9897 10.4124L20.7507 7.17337C20.6782 7.10083 20.592 7.0433 20.4973 7.00404C20.4025 6.96478 20.3009 6.94458 20.1983 6.94458C20.0958 6.94458 19.9942 6.96478 19.8994 7.00404C19.8046 7.0433 19.7185 7.10083 19.646 7.17337C19.5735 7.2459 19.5159 7.33201 19.4767 7.42679C19.4374 7.52156 19.4172 7.62313 19.4172 7.72571C19.4172 7.82829 19.4374 7.92987 19.4767 8.02464C19.5159 8.11941 19.5735 8.20552 19.646 8.27806L21.5515 10.1827H12.2319C12.0247 10.1827 11.826 10.2651 11.6795 10.4116C11.533 10.5581 11.4507 10.7568 11.4507 10.964C11.4507 11.1712 11.533 11.3699 11.6795 11.5164C11.826 11.6629 12.0247 11.7452 12.2319 11.7452H21.5515L19.646 13.6507C19.5733 13.7233 19.5157 13.8096 19.4764 13.9045C19.437 13.9994 19.4168 14.1011 19.4168 14.2038C19.4168 14.3066 19.437 14.4083 19.4764 14.5032C19.5157 14.5981 19.5733 14.6843 19.646 14.757Z" fill="white"/>
</svg>
