<svg width="25" height="25" viewBox="0 0 25 25" fill="none" xmlns="http://www.w3.org/2000/svg">
<path d="M15.25 13C15.25 14.2438 14.2437 15.25 13 15.25C11.7562 15.25 10.75 14.2438 10.75 13C10.75 11.7563 11.7562 10.75 13 10.75C14.2437 10.75 15.25 11.7563 15.25 13ZM18.5 10.75C17.2563 10.75 16.25 11.7563 16.25 13C16.25 14.2438 17.2563 15.25 18.5 15.25C19.7437 15.25 20.75 14.2438 20.75 13C20.75 11.7563 19.7437 10.75 18.5 10.75ZM7.5 10.75C6.25625 10.75 5.25 11.7563 5.25 13C5.25 14.2438 6.25625 15.25 7.5 15.25C8.74375 15.25 9.75 14.2438 9.75 13C9.75 11.7563 8.74375 10.75 7.5 10.75Z" fill="#DED5C4"/>
<circle cx="12.5" cy="12.5" r="12" stroke="#DED5C4"/>
</svg>
