<svg width="25" height="25" viewBox="0 0 25 25" fill="none" xmlns="http://www.w3.org/2000/svg">
<path d="M18.9757 9.39955L13.5142 8.60441L11.0735 3.66454C10.8541 3.22313 10.4262 3 9.99819 3C9.57282 3 9.14782 3.22015 8.92768 3.66454L6.48629 8.60404L1.02441 9.39843C0.0449418 9.54022 -0.347591 10.7451 0.362475 11.4354L4.31355 15.2786L3.37849 20.7069C3.24565 21.4822 3.86467 22.1043 4.55795 22.1043C4.7419 22.1043 4.93108 22.0606 5.11279 21.9643L9.99893 19.4017L14.8847 21.9651C15.066 22.0602 15.2548 22.1035 15.438 22.1035C16.1321 22.1035 16.7522 21.4837 16.6194 20.708L15.6854 15.2793L19.6373 11.4368C20.3477 10.7466 19.9552 9.54134 18.9757 9.39955ZM14.4332 13.9965L13.7571 14.654L13.9168 15.5823L14.6451 19.8155L10.8344 17.8159L9.9993 17.3778L10.0004 5.54251L11.9045 9.39657L12.3217 10.241L13.2549 10.3768L17.5171 10.9973L14.4332 13.9965Z" fill="#DED5C4"/>
</svg>
