<svg width="35" height="35" viewBox="0 0 35 35" fill="none" xmlns="http://www.w3.org/2000/svg">
<path d="M29.048 19.5435C29.2548 19.4771 29.3949 19.2847 29.3949 19.0674V15.9473C29.3949 15.73 29.2545 15.5376 29.0477 15.4712L26.1046 14.5273C25.9742 14.165 25.8407 13.8423 25.7006 13.5503L27.1151 10.7905C27.214 10.5977 27.1771 10.3628 27.0241 10.2095L24.819 7.99951C24.6657 7.84521 24.431 7.80908 24.2379 7.90723L21.4777 9.31494C21.1674 9.16016 20.8363 9.02197 20.4884 8.90186L19.5463 5.95508C19.4799 5.74805 19.2875 5.60742 19.0699 5.60742H15.9501C15.7333 5.60742 15.5411 5.74707 15.4742 5.95361L14.5219 8.89893C14.2235 9.00244 13.8803 9.13477 13.5321 9.30859L10.7887 7.89746C10.5949 7.79834 10.3595 7.83545 10.2059 7.98926L7.99597 10.2046C7.84314 10.3579 7.80628 10.5918 7.90467 10.7847L9.30335 13.5269C9.14612 13.8467 9.00989 14.1777 8.89637 14.5156L5.96155 15.4614C5.7555 15.5278 5.6156 15.7192 5.61487 15.936L5.60511 19.0562C5.60437 19.2734 5.74402 19.4658 5.95056 19.5332L8.8971 20.4902C9.0094 20.8066 9.14295 21.1255 9.30603 21.4673L7.89978 24.2197C7.80139 24.4126 7.83802 24.6465 7.99085 24.7998L10.1908 27.0098C10.3439 27.1636 10.5787 27.2026 10.7719 27.1025L13.5306 25.6978C13.8556 25.8569 14.1783 25.9922 14.5077 26.1069L15.4647 29.0474C15.5316 29.2534 15.7235 29.3926 15.9401 29.3926H19.0599C19.2765 29.3926 19.4684 29.2534 19.5353 29.0474L20.4933 26.105C20.839 25.9824 21.161 25.8496 21.4674 25.7026L24.2228 27.1079C24.4166 27.2061 24.6498 27.1689 24.8033 27.0166L27.0082 24.8164C27.1613 24.6636 27.1989 24.4292 27.1007 24.2363L25.6971 21.4702C25.8441 21.1738 25.9784 20.8501 26.1036 20.4907L29.048 19.5435ZM24.6891 21.6934L26.0448 24.3647L24.3539 26.0522L21.6974 24.6973C21.5533 24.623 21.3837 24.624 21.2406 24.6982C20.8444 24.9033 20.4183 25.0796 19.9386 25.2373C19.7875 25.2871 19.6688 25.4062 19.6198 25.5576L18.6969 28.3926H16.3031L15.3803 25.5576C15.3304 25.4043 15.2094 25.2842 15.0555 25.2358C14.6173 25.0972 14.194 24.9199 13.7614 24.6938C13.6183 24.6196 13.4474 24.6182 13.3031 24.6919L10.6425 26.0464L8.95545 24.3516L10.3102 21.6997C10.3824 21.5581 10.3832 21.3906 10.3121 21.2485C10.0746 20.7734 9.901 20.3574 9.76575 19.9385C9.71643 19.7861 9.59705 19.6665 9.44446 19.6167L6.60633 18.6948L6.61365 16.3022L9.44837 15.3887C9.60511 15.3379 9.72693 15.2134 9.77405 15.0557C9.90784 14.6084 10.0866 14.1738 10.306 13.7627C10.3829 13.6187 10.3846 13.4458 10.3102 13.3003L8.96033 10.6538L10.6559 8.9541L13.3063 10.3174C13.4554 10.3931 13.6324 10.3906 13.7784 10.3096C14.1366 10.1099 14.5243 9.94775 15.0753 9.76758C15.2274 9.71826 15.3466 9.59863 15.3959 9.44629L16.3138 6.60742H18.705L19.6137 9.44971C19.6635 9.60498 19.7855 9.72607 19.9408 9.77441C20.4098 9.9209 20.8453 10.1035 21.2352 10.3164C21.3803 10.395 21.5551 10.3979 21.702 10.3228L24.368 8.96338L26.0592 10.6582L24.695 13.3193C24.621 13.4639 24.6217 13.6353 24.6969 13.7788C24.8878 14.1445 25.066 14.5728 25.2416 15.0884C25.2926 15.2383 25.4115 15.355 25.5621 15.4033L28.3949 16.312V18.7031L25.557 19.6162C25.4037 19.6655 25.2838 19.7856 25.2343 19.9385C25.0724 20.4399 24.8964 20.8618 24.6962 21.2271C24.6171 21.3721 24.6144 21.5464 24.6891 21.6934Z" fill="#DED5C4"/>
<path d="M18.1271 12.7823C15.5267 12.4356 13.1273 14.2711 12.7804 16.8721C12.6122 18.1343 12.944 19.3868 13.715 20.398C14.487 21.4102 15.6068 22.0606 16.8688 22.2286C17.0814 22.2569 17.2926 22.2706 17.5016 22.2706C19.8541 22.2706 21.9076 20.5245 22.2265 18.1304C22.5731 15.5294 20.7343 13.1299 18.1271 12.7823ZM21.2352 17.9986C20.9611 20.0586 19.0656 21.5123 17.0006 21.2374C16.0043 21.1045 15.1198 20.5914 14.5104 19.7916C13.901 18.9922 13.6386 18.0025 13.7716 17.004C14.0231 15.1168 15.6417 13.7403 17.4962 13.7403C17.661 13.7403 17.8275 13.751 17.995 13.7735C20.0556 14.0484 21.5089 15.9434 21.2352 17.9986Z" fill="#DED5C4"/>
</svg>
