<svg width="18" height="20" viewBox="0 0 18 20" fill="none" xmlns="http://www.w3.org/2000/svg">
<path d="M15 14.264C14.24 14.264 13.56 14.547 13.04 14.9904L5.91 11.0753C5.96 10.8583 6 10.6413 6 10.4149C6 10.1885 5.96 9.97152 5.91 9.75454L12.96 5.87718C13.5 6.34888 14.21 6.64133 15 6.64133C16.66 6.64133 18 5.37718 18 3.81115C18 2.24511 16.66 0.980957 15 0.980957C13.34 0.980957 12 2.24511 12 3.81115C12 4.03756 12.04 4.25454 12.09 4.47152L5.04 8.34888C4.5 7.87718 3.79 7.58473 3 7.58473C1.34 7.58473 0 8.84888 0 10.4149C0 11.981 1.34 13.2451 3 13.2451C3.79 13.2451 4.5 12.9527 5.04 12.481L12.16 16.4055C12.11 16.6036 12.08 16.8111 12.08 17.0187C12.08 18.5376 13.39 19.7734 15 19.7734C16.61 19.7734 17.92 18.5376 17.92 17.0187C17.92 15.4998 16.61 14.264 15 14.264Z" fill="#DED5C4"/>
</svg>
